Coordinates
version=1
nRows=18
nColumns=28
inDegrees=yes

Units are S.I. units (second, meters, Newtons, ...)
Angles are in degrees.

endheader
time	pelvis_tilt	pelvis_list	pelvis_rotation	pelvis_tx	pelvis_ty	pelvis_tz	hip_flexion_r	hip_adduction_r	hip_rotation_r	knee_angle_r	ankle_angle_r	subtalar_angle_r	mtp_angle_r	hip_flexion_l	hip_adduction_l	hip_rotation_l	knee_angle_l	socket_flexion	socket_adduction	socket_rotation	socket_tx	socket_ty	socket_tz	foot_flex	lumbar_extension	lumbar_bending	lumbar_rotation
      0.96666667	      8.44238639	      2.92680711	     -4.89771450	      0.39354943	      1.03326710	      0.28548742	      0.17685898	      1.57623136	      2.08113856	    -23.36580503	     10.28697668	     -3.65087103	     32.64086714	     -2.18061418	      2.57742648	     -2.01433503	    -54.34302856	      0.00000000	      0.00000000	      0.00000000	      0.00000000	      0.00905057	      0.00000000	      4.90995892	    -15.96278702	     -3.69452307	     10.21923561
      0.97083333	      8.46323472	      2.92282138	     -5.15518914	      0.39765601	      1.03409190	      0.28591295	     -0.10613624	      1.49136170	      2.00827485	    -23.32771670	     10.28299349	     -3.62086917	     32.63726824	     -1.64783557	      2.54399264	     -1.97213399	    -54.03496775	      0.00000000	      0.00000000	      0.00000000	      0.00000000	      0.00879232	      0.00000000	      4.93723298	    -16.07201092	     -3.72170606	     10.24349574
      0.97500000	      8.41834868	      3.11892086	     -5.40945965	      0.40248052	      1.03507565	      0.28649786	     -0.59040400	      1.20623924	      2.13615802	    -22.78230337	     10.17583732	     -3.30331661	     32.67778716	     -1.10062632	      2.72347597	     -1.91250927	    -53.57728365	      0.00000000	      0.00000000	      0.00000000	      0.00000000	      0.00910244	      0.00000000	      4.93120493	    -15.91516112	     -4.03908972	     10.43551407
      0.97916667	      8.43335373	      3.11330045	     -5.64884711	      0.40642358	      1.03584039	      0.28691797	     -0.85032344	      1.12993587	      2.09450761	    -22.76019859	     10.15633140	     -3.24667889	     32.67810365	     -0.54862049	      2.68637717	     -1.83980813	    -53.21873254	      0.00000000	      0.00000000	      0.00000000	      0.00000000	      0.00898480	      0.00000000	      4.95223248	    -16.05683023	     -4.07936577	     10.47563548
      0.98333333	      8.35683116	      3.30229544	     -5.91583444	      0.41121473	      1.03669222	      0.28747456	     -1.28677998	      0.85558134	      2.27893842	    -22.23373964	      9.99053012	     -2.80338880	     32.74435586	     -0.02592421	      2.88321910	     -1.71330181	    -52.61460687	      0.00000000	      0.00000000	      0.00000000	      0.00000000	      0.00909507	      0.00000000	      4.90456028	    -15.87293733	     -4.39651344	     10.76063615
      0.98750000	      8.31325895	      3.38559122	     -6.22068551	      0.41559541	      1.03741382	      0.28796420	     -1.59955599	      0.67221911	      2.35214075	    -21.97783484	      9.85784571	     -2.39607171	     32.83732262	      0.48863512	      2.96670695	     -1.62942935	    -52.05362081	      0.00000000	      0.00000000	      0.00000000	      0.00000000	      0.00904380	      0.00000000	      4.86752447	    -15.81335608	     -4.57339724	     11.06419808
      0.99166667	      8.25861307	      3.43849053	     -6.50756936	      0.41995171	      1.03806175	      0.28849559	     -1.88606739	      0.52687670	      2.39163994	    -21.76637997	      9.77649508	     -1.98458301	     32.96331713	      1.00006672	      3.00034923	     -1.54918038	    -51.45337444	      0.00000000	      0.00000000	      0.00000000	      0.00000000	      0.00893935	      0.00000000	      4.84163260	    -15.76837556	     -4.73105644	     11.37069460
      0.99583333	      8.21102127	      3.47876584	     -6.80099483	      0.42423628	      1.03866651	      0.28899139	     -2.16437239	      0.38981276	      2.42100180	    -21.57207167	      9.71395042	     -1.58386336	     33.10843687	      1.50447110	      3.03042337	     -1.44712350	    -50.84133003	      0.00000000	      0.00000000	      0.00000000	      0.00000000	      0.00885885	      0.00000000	      4.80931106	    -15.72124230	     -4.86241262	     11.65383545
      1.00000000	      8.15862508	      3.50604950	     -7.06133701	      0.42848312	      1.03922613	      0.28944301	     -2.43832220	      0.27300466	      2.45005738	    -21.38577079	      9.66719735	     -1.29574696	     33.21044422	      2.00653989	      3.04626579	     -1.30131780	    -50.19872981	      0.00000000	      0.00000000	      0.00000000	      0.00000000	      0.00879486	      0.00000000	      4.80898316	    -15.69085847	     -4.96184073	     11.84060214
      1.00416667	      8.08628001	      3.53320004	     -7.32087366	      0.43281111	      1.03973822	      0.28989647	     -2.72120975	      0.16015146	      2.50253174	    -21.14413503	      9.59987571	     -0.97777508	     33.31968271	      2.49809864	      3.06440495	     -1.13167193	    -49.49431537	      0.00000000	      0.00000000	      0.00000000	      0.00000000	      0.00868750	      0.00000000	      4.76798463	    -15.61536395	     -5.06479907	     12.04333032
      1.00833333	      8.09570888	      3.50124623	     -7.55207167	      0.43644848	      1.04026060	      0.29033846	     -2.94913401	      0.11073590	      2.44982837	    -21.13107173	      9.59304011	     -0.93109506	     33.32531393	      3.07437504	      2.98912903	     -1.03330150	    -49.02905365	      0.00000000	      0.00000000	      0.00000000	      0.00000000	      0.00909049	      0.00000000	      4.80316298	    -15.78203072	     -5.09962166	     12.07275889
      1.01250000	      7.94405586	      3.53404242	     -7.79716059	      0.44126012	      1.04061796	      0.29074402	     -3.26187894	      0.00316766	      2.60632691	    -20.71307699	      9.48847408	     -0.56200542	     33.43690290	      3.47282996	      3.03862296	     -0.72607260	    -48.03584016	      0.00000000	      0.00000000	      0.00000000	      0.00000000	      0.00852174	      0.00000000	      4.72210809	    -15.51971254	     -5.19284130	     12.30696208
      1.01666667	      7.83903239	      3.50245910	     -8.04315087	      0.44555472	      1.04093644	      0.29120003	     -3.52099182	     -0.03439536	      2.69130515	    -20.46202827	      9.38783388	     -0.25057168	     33.55039626	      3.94677679	      2.98304179	     -0.51242270	    -47.22685004	      0.00000000	      0.00000000	      0.00000000	      0.00000000	      0.00830311	      0.00000000	      4.65319516	    -15.42417929	     -5.22378484	     12.53557761
      1.02083333	      7.68127753	      3.38759831	     -8.36983252	      0.44977040	      1.04113776	      0.29170923	     -3.69151933	      0.00049479	      2.78893187	    -20.23896219	      9.19219751	      0.41806213	     34.00869330	      4.46214979	      2.80731142	     -0.42807010	    -46.42291211	      0.00000000	      0.00000000	      0.00000000	      0.00000000	      0.00805277	      0.00000000	      4.59141822	    -15.26827947	     -5.19777216	     13.16159585
      1.02500000	      7.60598963	      3.38309353	     -8.57637301	      0.45390333	      1.04137859	      0.29208494	     -3.93083492	     -0.06880975	      2.82029257	    -20.08315459	      9.19911762	      0.50871787	     34.09829119	      4.91987473	      2.78517183	     -0.16278940	    -45.59920651	      0.00000000	      0.00000000	      0.00000000	      0.00000000	      0.00797408	      0.00000000	      4.55889860	    -15.23019302	     -5.24833879	     13.21279650
      1.02916667	      7.58710580	      3.34628550	     -8.76555712	      0.45745065	      1.04164884	      0.29252107	     -4.14433778	     -0.09475052	      2.80140793	    -20.03398240	      9.19477477	      0.54617379	     34.12017148	      5.48159644	      2.68961149	     -0.00953953	    -45.00456840	      0.00000000	      0.00000000	      0.00000000	      0.00000000	      0.00846507	      0.00000000	      4.59088438	    -15.38568444	     -5.29156889	     13.23489524
      1.03333333	      7.39808036	      3.28741057	     -8.94981686	      0.46209259	      1.04164638	      0.29285306	     -4.38939309	     -0.07837044	      2.95177323	    -19.71087825	      9.14129854	      0.72943092	     34.19779988	      5.84014524	      2.62912872	      0.43941888	    -43.86197205	      0.00000000	      0.00000000	      0.00000000	      0.00000000	      0.00766211	      0.00000000	      4.47583508	    -15.12767086	     -5.25079483	     13.34857588
      1.03750000	      7.24313583	      3.17645577	     -9.11403749	      0.46624842	      1.04166551	      0.29322574	     -4.61576597	     -0.00080920	      3.04682837	    -19.43855209	      9.07057137	      0.89325685	     34.27254349	      6.31001727	      2.46447782	      0.75182322	    -42.93232069	      0.00000000	      0.00000000	      0.00000000	      0.00000000	      0.00736407	      0.00000000	      4.36211499	    -15.00378964	     -5.18177654	     13.47900046
